<svg width="25" height="24" viewBox="0 0 25 24" fill="none" xmlns="http://www.w3.org/2000/svg">
<path d="M3.25537 4H3.86169C4.88231 4 5.73921 4.7685 5.84989 5.78311L6.66085 13.2169C6.77153 14.2315 7.62843 15 8.64906 15H17.3014C18.2156 15 19.0135 14.3801 19.2394 13.4942L20.6193 8.08311C20.9418 6.81854 19.9864 5.58889 18.6813 5.58889H6.85537M6.88013 18.6249H7.63013M6.88013 19.3749H7.63013M17.8801 18.6249H18.6301M17.8801 19.3749H18.6301M8.25537 19C8.25537 19.5523 7.80766 20 7.25537 20C6.70309 20 6.25537 19.5523 6.25537 19C6.25537 18.4477 6.70309 18 7.25537 18C7.80766 18 8.25537 18.4477 8.25537 19ZM19.2554 19C19.2554 19.5523 18.8077 20 18.2554 20C17.7031 20 17.2554 19.5523 17.2554 19C17.2554 18.4477 17.7031 18 18.2554 18C18.8077 18 19.2554 18.4477 19.2554 19Z" stroke="black" stroke-width="2" stroke-linecap="round"/>
</svg>
